<?xml version="1.0" standalone="no"?>
<!DOCTYPE svg PUBLIC "-//W3C//DTD SVG 20010904//EN"
 "http://www.w3.org/TR/2001/REC-SVG-20010904/DTD/svg10.dtd">
<svg version="1.0" xmlns="http://www.w3.org/2000/svg"
 width="1276.000000pt" height="1276.000000pt" viewBox="0 0 1276.000000 1276.000000"
 preserveAspectRatio="xMidYMid meet">
<metadata>
Created by potrace 1.14, written by Peter Selinger 2001-2017
</metadata>
<g transform="translate(0.000000,1276.000000) scale(0.100000,-0.100000)"
fill="#000000" stroke="none">
<path d="M0 6380 l0 -6380 6380 0 6380 0 0 6380 0 6380 -6380 0 -6380 0 0
-6380z m4798 3863 l-3 -718 -1042 -3 -1043 -2 0 720 0 720 1045 0 1045 0 -2
-717z m3410 0 l-3 -718 -1045 0 -1045 0 -3 705 c-1 388 0 711 3 718 3 9 223
12 1050 12 l1045 0 -2 -717z m1792 -2573 l0 -720 -3645 0 -3645 0 0 720 0 720
3645 0 3645 0 0 -720z m0 -2380 l0 -720 -3645 0 -3645 0 0 720 0 720 3645 0
3645 0 0 -720z m-2 -2382 l2 -718 -3645 0 -3645 0 0 720 0 720 3643 -2 3642
-3 3 -717z"/>
</g>
</svg>
